<?xml version="1.0" encoding="UTF-8"?>
<svg width="393px" height="393px" viewBox="0 0 393 393" version="1.1" xmlns="http://www.w3.org/2000/svg" xmlns:xlink="http://www.w3.org/1999/xlink">
    <!-- Generator: Sketch 61.2 (89653) - https://sketch.com -->
    <title>favicon</title>
    <desc>Created with Sketch.</desc>
    <g id="favicon" stroke="none" stroke-width="1" fill="none" fill-rule="evenodd">
        <g id="car" transform="translate(0.000000, 46.000000)">
            <g id="Group">
                <path d="M0,221.71058 C0,238.561148 19.5488851,241.257239 33.7049743,245.975398 C64.0394511,256.759761 106.507719,263.499988 146.953688,267.544124 C155.716981,283.720669 180.005209,292.184735 182.027507,293.53278 C187.420303,296.228871 208.296741,305.289396 208.296741,321.465941 C208.296741,332.924327 194.140652,341.0126 185.377358,347.078804 L241.327616,347.078804 C241.327616,347.078804 252.787307,333.59835 252.787307,320.117896 C252.787307,303.267328 235.26072,288.438828 209.64494,276.980442 C205.600343,275.632397 196.16295,273.610329 187.399657,270.240215 C200.207547,270.914238 211.667238,270.914238 221.778731,270.914238 C247.394511,270.914238 354.576329,263.499988 354.576329,302.593305 C354.576329,317.421805 336.375643,334.272373 327.61235,347.078804 L385.584906,347.078804 C385.584906,347.078804 393,310.007555 393,301.919283 L393,300.571237 C393,287.764806 391.651801,246.64942 306.041166,246.64942 L301.996569,246.64942 C233.238422,246.64942 223.12693,247.323443 215.037736,246.64942 L177.288165,245.975398 C190.770154,227.102762 237.283019,219.014489 237.283019,219.014489 L200.207547,212.274262 C198.859348,212.948285 154.368782,220.362534 144.931389,244.627352 C112.574614,243.279307 79.5437393,239.909193 56.6243568,233.168966 C51.2315609,231.820921 40.4459691,230.472875 40.4459691,221.71058 C40.4459691,213.622307 45.1646655,207.556103 82.9142367,192.053581 L45.838765,185.987376 C44.490566,185.987376 0,196.097717 0,221.71058 Z" id="Path" fill="#B30005"></path>
                <path d="M62.2067039,172.749931 C62.2067039,172.749931 66.2556102,180.840262 77.0526937,182.862844 C88.5245949,184.885427 93.9231366,178.143485 93.9231366,178.143485 L99.3216784,146.456357 C99.3216784,146.456357 141.835195,156.56927 161.404908,159.940241 C180.299804,163.311213 224.837774,168.704766 224.837774,168.704766 L219.439232,200.391894 C219.439232,200.391894 222.138503,208.482224 232.935586,210.504807 C244.407488,212.527389 250.480847,205.785447 250.480847,205.785447 L256.554207,171.401543 C266.001655,168.704766 266.676472,159.940241 266.676472,159.940241 L274.099467,116.117618 C276.798738,101.285346 262.627566,97.9143747 262.627566,97.9143747 L263.302384,48.0240036 C263.977201,27.1239833 248.456394,20.3820412 241.033399,19.0336528 L135.087017,0.15621512 C128.33884,-0.517979084 110.79358,0.15621512 104.045402,19.707847 L87.8497772,66.9014413 C87.8497772,66.9014413 73.6786051,65.5530529 70.9793342,80.3853254 L62.8815216,124.207949 C62.8815216,124.207949 60.8570685,132.298279 68.2800634,138.366027 L62.2067039,172.749931 Z M105.454729,48.1017514 L110.179569,33.2395104 C114.229433,21.7550514 125.704046,17.7017129 134.47875,18.3772694 L168.902589,22.4306078 L202.651451,28.5106155 L235.725335,36.6172924 C244.500039,39.3195181 253.274743,46.0750822 253.949721,58.910654 L253.274743,73.772895 C253.274743,73.772895 253.274743,87.2840232 239.775199,84.5817976 C229.65054,83.2306848 190.501861,73.772895 177.677293,71.0706694 C164.177748,69.0440001 124.354091,64.3151053 114.229433,62.288436 C100.729888,60.2617668 105.454729,48.1017514 105.454729,48.1017514 Z" id="Fill-1" fill="#000000"></path>
            </g>
        </g>
    </g>
</svg>